<?xml version="1.0" encoding="UTF-8" standalone="no"?>
<!-- Created with Inkscape (http://www.inkscape.org/) -->

<svg
   width="45.479576mm"
   height="45.304493mm"
   viewBox="0 0 45.479576 45.304493"
   version="1.1"
   id="svg5"
   xml:space="preserve"
   inkscape:version="1.2.1 (9c6d41e, 2022-07-14)"
   sodipodi:docname="icon.svg"
   inkscape:export-filename="icon.png"
   inkscape:export-xdpi="603.17188"
   inkscape:export-ydpi="603.17188"
   xmlns:inkscape="http://www.inkscape.org/namespaces/inkscape"
   xmlns:sodipodi="http://sodipodi.sourceforge.net/DTD/sodipodi-0.dtd"
   xmlns:xlink="http://www.w3.org/1999/xlink"
   xmlns="http://www.w3.org/2000/svg"
   xmlns:svg="http://www.w3.org/2000/svg"><sodipodi:namedview
     id="namedview7"
     pagecolor="#505050"
     bordercolor="#eeeeee"
     borderopacity="1"
     inkscape:showpageshadow="0"
     inkscape:pageopacity="0"
     inkscape:pagecheckerboard="0"
     inkscape:deskcolor="#505050"
     inkscape:document-units="mm"
     showgrid="false"
     inkscape:zoom="1.2687955"
     inkscape:cx="88.666768"
     inkscape:cy="145.80757"
     inkscape:window-width="1920"
     inkscape:window-height="988"
     inkscape:window-x="0"
     inkscape:window-y="0"
     inkscape:window-maximized="1"
     inkscape:current-layer="layer1" /><defs
     id="defs2"><linearGradient
       inkscape:collect="always"
       id="linearGradient1145"><stop
         style="stop-color:#c0bfbc;stop-opacity:1;"
         offset="0"
         id="stop1141" /><stop
         style="stop-color:#c0bfbc;stop-opacity:0;"
         offset="1"
         id="stop1143" /></linearGradient><linearGradient
       inkscape:collect="always"
       xlink:href="#linearGradient1145"
       id="linearGradient1147"
       x1="150.05476"
       y1="18.103436"
       x2="183.81044"
       y2="18.103436"
       gradientUnits="userSpaceOnUse" /></defs><g
     inkscape:label="Layer 1"
     inkscape:groupmode="layer"
     id="layer1"
     transform="translate(-19.702706,-98.063507)"><g
       id="g336"
       transform="translate(-52.927502,1.9507641)"><path
         style="fill:#cbcbcb;stroke-width:0.264583"
         d="m 92.471971,141.3297 c -4.061706,-0.76189 -7.296475,-2.00045 -9.896319,-3.78919 -6.182038,-4.25336 -9.93737,-11.40983 -9.945433,-18.95285 -0.0077,-7.20778 3.863715,-14.46882 9.945433,-18.653156 1.837272,-1.264076 5.304209,-2.801945 7.515319,-3.333654 2.70638,-0.650809 7.876453,-0.650809 10.582829,0 7.64838,1.839219 13.89913,7.6692 16.35866,15.25749 3.06281,9.44953 -0.56562,19.98695 -8.84334,25.68217 -1.79994,1.23839 -5.28918,2.79564 -7.38277,3.29492 -1.81087,0.43187 -7.020131,0.7408 -8.334379,0.49427 z"
         id="path344"
         sodipodi:nodetypes="ssssssssss" /><path
         id="rect1115"
         style="fill:url(#linearGradient1147);fill-opacity:1;stroke-linejoin:round;stroke-miterlimit:10;paint-order:stroke markers fill;stop-color:#000000"
         d="m 156.57458,1.6651891 -6.51996,31.7067789 15.8627,0.681485 c 1.43646,-1.315983 4.11087,-4.385368 4.94908,-5.748591 1.12735,-1.833435 2.49367,-5.401995 2.89074,-7.550417 1.24027,-6.710641 -0.61646,-13.4832332 -4.70681,-18.5535685 z"
         transform="rotate(45)" /><path
         style="fill:#63b4f4;stroke-width:0.264583"
         d="m 82.750205,129.84238 -1.12349,-1.10771 -0.530839,-9.94416 5.92094,-11.43009 h 3.952103 l 1.525634,1.45521 1.525634,1.45521 h 6.981603 6.9816 l 0.7771,0.81073 0.77711,0.81074 0.0717,7.85437 -0.39688,8.77673 -1.13007,1.25287 -25.332185,0.0661 z M 100.93864,117.3408 97.499054,113.858 v 3.55659 l 3.439586,-0.0738 z"
         id="path342"
         sodipodi:nodetypes="ccccccccccccccccccccc" /><path
         style="fill:#fdc827;stroke-width:0.264583"
         d="m 82.750205,129.84238 c -0.326502,-0.13127 -0.832073,-0.62974 -1.12349,-1.10771 -0.502833,-0.82473 -0.5299,-1.33179 -0.530839,-9.94416 -0.0013,-12.01325 -0.303396,-11.43009 5.92094,-11.43009 h 3.952103 l 1.525634,1.45521 1.525634,1.45521 h 6.981603 6.9816 l 0.7771,0.81073 0.77711,0.81074 0.0717,7.85437 c 0.0647,7.08049 0.0256,7.94525 -0.39688,8.77673 -0.25774,0.5073 -0.76627,1.07109 -1.13007,1.25287 -0.79321,0.39634 -24.357831,0.45783 -25.332185,0.0661 z m 18.982185,-7.88516 v -5.24695 l -1.956178,-1.8968 -1.956176,-1.8968 H 94.08767 90.355304 v 7.14375 7.14375 h 5.688542 5.688544 z"
         id="path340" /><path
         style="fill:#fda002;stroke-width:0.264583"
         d="m 81.35947,110.43228 c 0,-1.20005 0.108393,-1.4893 0.810354,-2.16246 l 0.810354,-0.77711 4.018292,-0.081 4.018292,-0.081 1.446171,1.47006 1.44617,1.47006 h -5.501419 -5.501419 l -0.773397,0.7734 -0.773398,0.77339 z"
         id="path338" /><path
         style="fill:#f4f4f4;fill-opacity:1;stroke-width:1;stroke-linejoin:round;stroke-miterlimit:10;paint-order:stroke markers fill;stop-color:#000000"
         d="m 97.499054,113.858 3.439586,3.4828 v 0 l -3.439586,0.0738 z"
         id="path1059" /></g></g></svg>
